<svg width="112" height="113" viewBox="0 0 112 113" fill="none" xmlns="http://www.w3.org/2000/svg">
<path fill-rule="evenodd" clip-rule="evenodd" d="M0.750246 10.2076C0.750246 7.74394 1.72892 5.38121 3.47097 3.63916C5.21302 1.89711 7.57575 0.918439 10.0394 0.918439H102.638C103.858 0.916445 105.068 1.15528 106.196 1.62127C107.325 2.08726 108.35 2.77126 109.214 3.6341C110.078 4.49694 110.763 5.52168 111.23 6.64965C111.697 7.77762 111.937 8.98666 111.937 10.2076V102.806C111.938 104.027 111.699 105.236 111.232 106.365C110.766 107.493 110.081 108.519 109.218 109.382C108.355 110.246 107.33 110.931 106.201 111.398C105.073 111.866 103.864 112.106 102.643 112.105H10.0394C8.81908 112.105 7.61075 111.865 6.48341 111.397C5.35607 110.93 4.33182 110.246 3.46918 109.382C2.60654 108.519 1.92241 107.495 1.45589 106.367C0.989362 105.24 0.749582 104.031 0.750246 102.811V10.2076ZM44.7599 43.3108H59.8156V50.8715C61.9888 46.5251 67.5481 42.6134 75.9022 42.6134C91.9182 42.6134 95.7137 51.2708 95.7137 67.1553V96.5793H79.5057V70.7739C79.5057 61.7274 77.3325 56.6229 71.8136 56.6229C64.1569 56.6229 60.9729 62.1266 60.9729 70.7739V96.5793H44.7599V43.3108ZM16.9633 95.8869H33.1763V42.6134H16.9633V95.8819V95.8869ZM35.496 25.238C35.5266 26.6261 35.2796 28.0064 34.7695 29.2979C34.2594 30.5893 33.4965 31.7658 32.5255 32.7584C31.5545 33.751 30.3951 34.5396 29.1152 35.078C27.8353 35.6164 26.4608 35.8938 25.0723 35.8938C23.6838 35.8938 22.3093 35.6164 21.0294 35.078C19.7495 34.5396 18.5901 33.751 17.6191 32.7584C16.6481 31.7658 15.8852 30.5893 15.3751 29.2979C14.865 28.0064 14.618 26.6261 14.6486 25.238C14.7086 22.5132 15.8331 19.9202 17.7814 18.0143C19.7297 16.1084 22.3468 15.0412 25.0723 15.0412C27.7978 15.0412 30.4149 16.1084 32.3632 18.0143C34.3115 19.9202 35.436 22.5132 35.496 25.238Z" fill="#5B7DF5"/>
</svg>
