<svg width="112" height="113" viewBox="0 0 112 113" fill="none" xmlns="http://www.w3.org/2000/svg">
<path fill-rule="evenodd" clip-rule="evenodd" d="M33.223 1.22862C39.1513 0.955705 41.0414 0.895058 56.1426 0.895058C71.2437 0.895058 73.1339 0.960759 79.0571 1.22862C84.9803 1.49648 89.0235 2.44156 92.5612 3.81118C96.2657 5.21112 99.6266 7.39947 102.406 10.2297C105.236 13.0043 107.42 16.3601 108.815 20.0697C110.189 23.6074 111.129 27.6506 111.402 33.5637C111.675 39.5021 111.736 41.3922 111.736 56.4883C111.736 71.5895 111.67 73.4796 111.402 79.4079C111.134 85.321 110.189 89.3642 108.815 92.9019C107.42 96.612 105.233 99.9734 102.406 102.752C99.6266 105.582 96.2657 107.766 92.5612 109.16C89.0235 110.535 84.9803 111.475 79.0672 111.748C73.1339 112.021 71.2437 112.082 56.1426 112.082C41.0414 112.082 39.1513 112.016 33.223 111.748C27.3099 111.48 23.2667 110.535 19.729 109.16C16.019 107.765 12.6576 105.578 9.87888 102.752C7.05059 99.9757 4.86191 96.616 3.46544 92.907C2.09582 89.3692 1.15579 85.3261 0.882876 79.413C0.609964 73.4746 0.549316 71.5844 0.549316 56.4883C0.549316 41.3872 0.615017 39.497 0.882876 33.5738C1.15073 27.6506 2.09582 23.6074 3.46544 20.0697C4.86397 16.3605 7.05433 13.0008 9.88393 10.2246C12.6587 7.39695 16.0167 5.2083 19.7239 3.81118C23.2617 2.44156 27.3048 1.50153 33.2179 1.22862H33.223ZM78.6073 11.2354C72.7447 10.9675 70.986 10.912 56.1426 10.912C41.2992 10.912 39.5404 10.9675 33.6778 11.2354C28.255 11.483 25.3136 12.3877 23.3527 13.1508C20.76 14.1616 18.9052 15.3594 16.9594 17.3052C15.115 19.0996 13.6955 21.284 12.8051 23.6984C12.042 25.6593 11.1373 28.6007 10.8897 34.0236C10.6218 39.8862 10.5662 41.6449 10.5662 56.4883C10.5662 71.3317 10.6218 73.0905 10.8897 78.9531C11.1373 84.3759 12.042 87.3173 12.8051 89.2782C13.6946 91.689 15.1148 93.8773 16.9594 95.6715C18.7536 97.5162 20.9419 98.9363 23.3527 99.8258C25.3136 100.589 28.255 101.494 33.6778 101.741C39.5404 102.009 41.2941 102.065 56.1426 102.065C70.991 102.065 72.7447 102.009 78.6073 101.741C84.0302 101.494 86.9716 100.589 88.9325 99.8258C91.5252 98.815 93.38 97.6172 95.3257 95.6715C97.1704 93.8773 98.5906 91.689 99.48 89.2782C100.243 87.3173 101.148 84.3759 101.395 78.9531C101.663 73.0905 101.719 71.3317 101.719 56.4883C101.719 41.6449 101.663 39.8862 101.395 34.0236C101.148 28.6007 100.243 25.6593 99.48 23.6984C98.4693 21.1057 97.2715 19.2509 95.3257 17.3052C93.5312 15.4609 91.3468 14.0414 88.9325 13.1508C86.9716 12.3877 84.0302 11.483 78.6073 11.2354ZM49.0418 73.6262C53.0074 75.277 57.4231 75.4998 61.5348 74.2565C65.6464 73.0133 69.1989 70.3812 71.5854 66.8097C73.972 63.2382 75.0446 58.9489 74.62 54.6745C74.1954 50.4 72.3 46.4056 69.2575 43.3734C67.318 41.4351 64.9729 39.9509 62.3909 39.0277C59.809 38.1045 57.0545 37.7653 54.3257 38.0345C51.5969 38.3036 48.9617 39.1744 46.6099 40.5843C44.258 41.9941 42.248 43.9078 40.7246 46.1877C39.2011 48.4675 38.2021 51.0568 37.7994 53.7691C37.3967 56.4814 37.6005 59.2492 38.3959 61.8734C39.1913 64.4975 40.5587 66.9126 42.3995 68.9449C44.2404 70.9771 46.5089 72.5759 49.0418 73.6262ZM35.937 36.2827C38.5904 33.6293 41.7405 31.5244 45.2074 30.0884C48.6743 28.6524 52.39 27.9133 56.1426 27.9133C59.8951 27.9133 63.6109 28.6524 67.0778 30.0884C70.5447 31.5244 73.6948 33.6293 76.3482 36.2827C79.0016 38.9361 81.1065 42.0862 82.5425 45.5531C83.9785 49.02 84.7176 52.7358 84.7176 56.4883C84.7176 60.2409 83.9785 63.9566 82.5425 67.4235C81.1065 70.8904 79.0016 74.0405 76.3482 76.6939C70.9893 82.0528 63.7212 85.0634 56.1426 85.0634C48.564 85.0634 41.2958 82.0528 35.937 76.6939C30.5781 71.3351 27.5675 64.0669 27.5675 56.4883C27.5675 48.9097 30.5781 41.6416 35.937 36.2827ZM91.0551 32.1688C91.7127 31.5485 92.2391 30.8026 92.6032 29.9753C92.9673 29.1479 93.1617 28.2559 93.1749 27.352C93.188 26.4482 93.0197 25.5509 92.6799 24.7133C92.3401 23.8757 91.8356 23.1147 91.1965 22.4755C90.5573 21.8364 89.7963 21.3319 88.9587 20.9921C88.1211 20.6523 87.2238 20.484 86.32 20.4972C85.4161 20.5103 84.5241 20.7047 83.6967 21.0688C82.8694 21.4329 82.1235 21.9593 81.5032 22.6169C80.2969 23.8957 79.6364 25.5942 79.6621 27.352C79.6877 29.1098 80.3974 30.7885 81.6405 32.0315C82.8835 33.2746 84.5622 33.9843 86.32 34.0099C88.0778 34.0356 89.7764 33.3751 91.0551 32.1688Z" fill="#5B7DF5"/>
</svg>
