<svg width="116" height="113" viewBox="0 0 116 94" fill="none" xmlns="http://www.w3.org/2000/svg">
<path d="M115.158 11.3951C110.938 13.2651 106.405 14.5286 101.639 15.0997C106.557 12.1572 110.236 7.52618 111.99 2.07063C107.369 4.81486 102.313 6.7465 97.04 7.78157C93.4941 3.9955 88.7974 1.48602 83.6791 0.642761C78.5608 -0.200499 73.3073 0.669635 68.7342 3.11807C64.1611 5.56651 60.5242 9.45625 58.3883 14.1834C56.2524 18.9106 55.7369 24.2106 56.9219 29.2608C47.5604 28.7908 38.4024 26.3576 30.0422 22.1191C21.682 17.8807 14.3063 11.9317 8.39405 4.65824C6.37247 8.14546 5.21007 12.1886 5.21007 16.4946C5.20781 20.3709 6.16239 24.1879 7.98912 27.6068C9.81584 31.0257 12.4582 33.9409 15.6818 36.0937C11.9433 35.9748 8.28727 34.9646 5.01802 33.1473V33.4505C5.01764 38.8872 6.89825 44.1566 10.3407 48.3646C13.7832 52.5726 18.5756 55.46 23.9046 56.5369C20.4365 57.4755 16.8004 57.6137 13.2711 56.9412C14.7746 61.6192 17.7034 65.7099 21.6473 68.6407C25.5913 71.5714 30.353 73.1955 35.2658 73.2856C26.926 79.8325 16.6263 83.3838 6.02375 83.3682C4.14561 83.3687 2.26906 83.259 0.403778 83.0397C11.166 89.9594 23.694 93.6318 36.4889 93.6176C79.8011 93.6176 103.479 57.7448 103.479 26.6327C103.479 25.622 103.453 24.6011 103.408 23.5903C108.014 20.2596 111.989 16.1352 115.148 11.4103L115.158 11.3951Z" fill="#5B7DF5"/>
</svg>
